HIERARCHY
ROOT Hips
{
	OFFSET -0.001795 -0.223333 0.028219
	CHANNELS 6 Xposition Yposition Zposition Zrotation Yrotation Xrotation 
	JOINT LeftUpLeg
	{
		OFFSET 0.069520 -0.091406 -0.006815
		CHANNELS 3 Zrotation Yrotation Xrotation
		JOINT LeftLeg
		{
			OFFSET 0.034277 -0.375199 -0.004496
			CHANNELS 3 Zrotation Yrotation Xrotation
			JOINT LeftFoot
			{
				OFFSET -0.013596 -0.397961 -0.043693
				CHANNELS 3 Zrotation Yrotation Xrotation
				JOINT LeftToe
				{
					OFFSET 0.026358 -0.055791 0.119288
					CHANNELS 3 Zrotation Yrotation Xrotation
					End Site
					{
						OFFSET 0.000000 0.000000 0.000000
					}
				}
			}
		}
	}
	JOINT RightUpLeg
	{
		OFFSET -0.067670 -0.090522 -0.004320
		CHANNELS 3 Zrotation Yrotation Xrotation
		JOINT RightLeg
		{
			OFFSET -0.038290 -0.382569 -0.008850
			CHANNELS 3 Zrotation Yrotation Xrotation
			JOINT RightFoot
			{
				OFFSET 0.015774 -0.398415 -0.042312
				CHANNELS 3 Zrotation Yrotation Xrotation
				JOINT RightToe
				{
					OFFSET -0.025372 -0.048144 0.123348
					CHANNELS 3 Zrotation Yrotation Xrotation
					End Site
					{
						OFFSET 0.000000 0.000000 0.000000
					}
				}
			}
		}
	}
	JOINT Spine
	{
		OFFSET -0.002533 0.108963 -0.026696
		CHANNELS 3 Zrotation Yrotation Xrotation
		JOINT Spine1
		{
			OFFSET 0.005487 0.135180 0.001092
			CHANNELS 3 Zrotation Yrotation Xrotation
			JOINT Spine2
			{
				OFFSET 0.001457 0.052922 0.025425
				CHANNELS 3 Zrotation Yrotation Xrotation
				JOINT Neck
				{
					OFFSET -0.002778 0.213870 -0.042857
					CHANNELS 3 Zrotation Yrotation Xrotation
					JOINT Head
					{
						OFFSET 0.005152 0.064970 0.051349
						CHANNELS 3 Zrotation Yrotation Xrotation
						End Site
						{
							OFFSET 0.000000 0.000000 0.000000
						}
					}
				}
				JOINT LeftShoulder
				{
					OFFSET 0.078845 0.121749 -0.034090
					CHANNELS 3 Zrotation Yrotation Xrotation
					JOINT LeftArm
					{
						OFFSET 0.090977 0.030469 -0.008868
						CHANNELS 3 Zrotation Yrotation Xrotation
						JOINT LeftForeArm
						{
							OFFSET 0.259612 -0.012772 -0.027456
							CHANNELS 3 Zrotation Yrotation Xrotation
							JOINT LeftHand
							{
								OFFSET 0.249234 0.008986 -0.001171
								CHANNELS 3 Zrotation Yrotation Xrotation
								End Site
								{
									OFFSET 0.000000 0.000000 0.000000
								}
							}
						}
					}
				}
				JOINT RightShoulder
				{
					OFFSET -0.081759 0.118833 -0.038615
					CHANNELS 3 Zrotation Yrotation Xrotation
					JOINT RightArm
					{
						OFFSET -0.096012 0.032551 -0.009143
						CHANNELS 3 Zrotation Yrotation Xrotation
						JOINT RightForeArm
						{
							OFFSET -0.253742 -0.013329 -0.021401
							CHANNELS 3 Zrotation Yrotation Xrotation
							JOINT RightHand
							{
								OFFSET -0.255298 0.007772 -0.005559
								CHANNELS 3 Zrotation Yrotation Xrotation
								End Site
								{
									OFFSET 0.000000 0.000000 0.000000
								}
							}
						}
					}
				}
			}
		}
	}
}
MOTION
Frames: 11
Frame Time: 0.050000
-0.006323 0.948700 -0.018452 0.243440 1.416719 5.902914 5.250011 -0.279722 -2.678701 -0.435795 0.253402 -7.003458 -2.049955 1.970517 13.551621 0.000000 0.000000 0.000000 -2.872406 0.215338 -1.453021 -4.692557 -0.217868 -8.725171 0.454215 -5.011146 15.550448 0.000000 0.000000 0.000000 5.533243 0.221509 -4.401565 -0.882985 0.484748 -3.266819 -8.928246 4.123626 0.614373 10.166193 -6.693377 -5.426997 0.000000 0.000000 0.000000 -7.093014 0.679121 -1.569706 -43.585865 -29.227095 5.447615 128.261958 -58.298667 -96.554084 0.000000 0.000000 0.000000 4.756039 -10.719229 -4.409261 55.620109 9.642285 0.195272 -163.268792 61.558264 -140.100959 0.000000 0.000000 0.000000 
-0.005866 0.948936 -0.018027 0.234558 1.557319 5.839389 5.225392 -0.279620 -2.670470 -0.411398 0.248592 -6.891973 -2.120610 1.871514 13.537494 0.000000 0.000000 0.000000 -2.854522 0.202041 -1.298094 -4.734959 -0.220775 -8.779095 0.409548 -5.099263 15.656660 0.000000 0.000000 0.000000 5.687003 0.228274 -4.458408 -0.903613 0.490970 -3.076933 -8.983631 4.440956 0.407805 10.372126 -6.798274 -5.540966 0.000000 0.000000 0.000000 -7.254199 0.741125 -1.662532 -43.862760 -28.402356 5.197934 130.778594 -58.823059 -100.554662 0.000000 0.000000 0.000000 4.727941 -10.790206 -4.424977 55.351196 9.225591 0.047034 -164.139578 60.361138 -140.375410 0.000000 0.000000 0.000000 
-0.005277 0.949208 -0.017623 0.278279 1.659502 5.966723 5.193690 -0.284538 -2.726000 -0.495035 0.255621 -7.025921 -2.196224 1.806286 13.652719 0.000000 0.000000 0.000000 -3.013798 0.221153 -1.496309 -4.589727 -0.208867 -8.584020 0.349172 -5.196510 15.687311 0.000000 0.000000 0.000000 5.753432 0.230922 -4.518509 -0.886317 0.487320 -3.235019 -9.203666 4.776407 0.373081 10.573725 -6.896222 -5.680895 0.000000 0.000000 0.000000 -7.373521 0.843386 -1.765241 -43.921549 -27.937578 5.030653 132.970275 -59.080022 -103.890824 0.000000 0.000000 0.000000 4.880992 -11.038698 -4.533538 55.225587 8.625414 -0.196726 -165.363564 58.799237 -140.983904 0.000000 0.000000 0.000000 
-0.004639 0.949575 -0.017270 0.311619 1.770037 6.096766 5.073803 -0.293656 -2.887465 -0.407132 0.250424 -6.987507 -2.261698 1.746087 13.731098 0.000000 0.000000 0.000000 -3.155257 0.231435 -1.586008 -4.457584 -0.213515 -8.592276 0.309516 -5.286269 15.828060 0.000000 0.000000 0.000000 5.846545 0.247710 -4.737615 -0.929790 0.502292 -3.010079 -9.150332 4.853210 0.163860 10.561207 -6.882309 -5.657417 0.000000 0.000000 0.000000 -7.695221 0.859805 -1.851098 -43.326682 -27.528212 4.831329 133.673305 -58.237588 -103.884450 0.000000 0.000000 0.000000 5.098330 -10.984027 -4.533819 54.921833 8.181522 -0.390869 -165.398327 57.025702 -139.733948 0.000000 0.000000 0.000000 
-0.004000 0.950000 -0.016957 0.404573 2.057881 6.279976 4.906323 -0.304751 -3.047851 -0.328271 0.249733 -7.112328 -2.438537 1.565726 13.896812 0.000000 0.000000 0.000000 -3.262061 0.240652 -1.680474 -4.480438 -0.216201 -8.632288 0.184867 -5.509678 16.014141 0.000000 0.000000 0.000000 5.785984 0.257331 -4.915042 -0.815489 0.453211 -2.978268 -9.106622 4.884158 -0.057548 10.311253 -6.670033 -5.698530 0.000000 0.000000 0.000000 -7.480142 1.084028 -1.911220 -42.954132 -27.663180 4.833898 132.570772 -56.717437 -100.797150 0.000000 0.000000 0.000000 5.129998 -11.328487 -4.675074 54.936263 7.939118 -0.458177 -165.106386 55.455435 -137.918400 0.000000 0.000000 0.000000 
-0.003363 0.950165 -0.016700 0.485255 2.255285 6.425929 4.820680 -0.320065 -3.304198 -0.378474 0.247002 -6.970970 -2.533432 1.444695 13.908423 0.000000 0.000000 0.000000 -3.364022 0.240121 -1.639514 -4.500578 -0.236054 -8.878985 0.110874 -5.655196 16.194270 0.000000 0.000000 0.000000 5.708744 0.274774 -5.168866 -0.754034 0.424127 -2.850256 -8.786405 4.871244 -0.185134 10.017356 -6.440511 -5.716167 0.000000 0.000000 0.000000 -7.383796 1.221262 -1.946473 -42.202157 -27.878559 4.814394 130.680352 -54.497643 -95.699323 0.000000 0.000000 0.000000 5.131871 -11.415254 -4.711120 54.555814 8.203503 -0.332483 -163.137890 54.115582 -133.235685 0.000000 0.000000 0.000000 
-0.002746 0.950406 -0.016554 0.561687 2.309317 6.510086 4.692588 -0.324313 -3.376021 -0.365859 0.247171 -7.002242 -2.579717 1.409314 13.987492 0.000000 0.000000 0.000000 -3.523391 0.248619 -1.707500 -4.429505 -0.237707 -8.873667 0.088713 -5.707370 16.281977 0.000000 0.000000 0.000000 5.599239 0.276687 -5.229617 -0.649929 0.377322 -2.802269 -8.516709 4.790084 -0.507405 9.826160 -6.313739 -5.629466 0.000000 0.000000 0.000000 -7.125414 1.374049 -1.944500 -41.531865 -28.021486 4.792402 128.798747 -52.195842 -90.454826 0.000000 0.000000 0.000000 5.108312 -11.396611 -4.704012 54.522525 8.465081 -0.191513 -161.300460 52.986326 -128.978642 0.000000 0.000000 0.000000 
-0.002133 0.950530 -0.016521 0.682215 2.410996 6.632107 4.519170 -0.338016 -3.618445 -0.349610 0.241247 -6.830853 -2.628082 1.347493 13.991202 0.000000 0.000000 0.000000 -3.663051 0.250875 -1.691195 -4.474461 -0.253993 -9.083967 0.052706 -5.791629 16.425871 0.000000 0.000000 0.000000 5.348309 0.278980 -5.329993 -0.495813 0.305926 -2.657012 -8.201929 4.766000 -0.851097 9.393413 -6.000877 -5.564201 0.000000 0.000000 0.000000 -6.964317 1.472295 -1.947844 -40.848673 -28.311024 4.816332 127.237745 -50.727538 -86.680803 0.000000 0.000000 0.000000 5.144940 -11.453220 -4.733105 54.222101 8.876462 0.008745 -159.395908 52.446528 -125.036791 0.000000 0.000000 0.000000 
-0.001525 0.950736 -0.016642 0.650589 2.295394 6.662259 4.462691 -0.343425 -3.737911 -0.274317 0.233334 -6.657404 -2.558413 1.433831 13.966307 0.000000 0.000000 0.000000 -3.639221 0.252022 -1.699721 -4.541907 -0.260956 -9.184398 0.134049 -5.703768 16.557190 0.000000 0.000000 0.000000 5.378733 0.291811 -5.473145 -0.448911 0.280027 -2.501408 -7.912637 4.681019 -1.102810 9.291194 -5.922773 -5.572458 0.000000 0.000000 0.000000 -6.435583 1.572825 -1.857813 -40.393822 -28.257082 4.738834 125.808111 -49.883177 -83.831708 0.000000 0.000000 0.000000 5.061674 -11.219716 -4.633098 53.966788 9.514282 0.292466 -157.061504 52.705726 -121.343403 0.000000 0.000000 0.000000 
-0.000939 0.950705 -0.016878 0.727892 2.162784 6.691303 4.279559 -0.344848 -3.785282 -0.188035 0.228531 -6.610710 -2.490598 1.517227 13.946653 0.000000 0.000000 0.000000 -3.720391 0.256077 -1.719415 -4.641168 -0.265958 -9.270325 0.199300 -5.622280 16.593716 0.000000 0.000000 0.000000 5.133356 0.293846 -5.533289 -0.431583 0.270958 -2.478001 -7.592602 4.675978 -1.103110 8.872069 -5.634948 -5.514900 0.000000 0.000000 0.000000 -6.305509 1.591523 -1.826021 -39.721546 -28.263544 4.644311 124.666574 -50.024557 -82.597583 0.000000 0.000000 0.000000 4.891482 -11.076801 -4.557864 53.765091 10.118746 0.545311 -155.093704 53.119458 -118.483754 0.000000 0.000000 0.000000 
-0.000362 0.950623 -0.017170 0.696599 2.081164 6.619899 4.226820 -0.335296 -3.634872 -0.115684 0.229686 -6.745402 -2.452192 1.560293 13.925798 0.000000 0.000000 0.000000 -3.714409 0.244131 -1.550432 -4.669137 -0.284340 -9.497708 0.267295 -5.544157 16.685604 0.000000 0.000000 0.000000 5.096676 0.296421 -5.550809 -0.432047 0.264018 -2.231319 -7.356719 4.556137 -1.238219 8.722673 -5.591232 -5.260765 0.000000 0.000000 0.000000 -6.093449 1.844033 -1.859593 -39.429118 -28.177735 4.579421 123.558804 -50.577289 -81.918555 0.000000 0.000000 0.000000 4.656338 -10.685862 -4.376639 53.504453 10.998013 0.924915 -152.261171 53.683082 -114.563752 0.000000 0.000000 0.000000 
